<svg width="31" height="30" viewBox="0 0 31 30" fill="none" xmlns="http://www.w3.org/2000/svg">
<path d="M30.0072 27.1413L24.3423 21.4931C26.17 19.1646 27.1618 16.2892 27.1581 13.329C27.1581 10.6928 26.3763 8.11578 24.9117 5.92383C23.4471 3.73188 21.3654 2.02346 18.9298 1.01462C16.4943 0.00577522 13.8143 -0.258184 11.2287 0.25612C8.6431 0.770423 6.26809 2.03989 4.40399 3.90399C2.53989 5.76809 1.27042 8.1431 0.75612 10.7287C0.241816 13.3143 0.505775 15.9943 1.51462 18.4298C2.52346 20.8654 4.23188 22.9471 6.42383 24.4117C8.61578 25.8763 11.1928 26.6581 13.829 26.6581C16.7892 26.6618 19.6646 25.67 21.9931 23.8423L27.6413 29.5072C27.7961 29.6633 27.9804 29.7873 28.1835 29.8719C28.3865 29.9565 28.6043 30 28.8242 30C29.0442 30 29.2619 29.9565 29.465 29.8719C29.668 29.7873 29.8523 29.6633 30.0072 29.5072C30.1633 29.3523 30.2873 29.168 30.3719 28.965C30.4565 28.7619 30.5 28.5442 30.5 28.3242C30.5 28.1043 30.4565 27.8865 30.3719 27.6835C30.2873 27.4804 30.1633 27.2961 30.0072 27.1413ZM3.83227 13.329C3.83227 11.3519 4.41857 9.41909 5.51703 7.77513C6.61549 6.13117 8.17677 4.84986 10.0034 4.09322C11.8301 3.33659 13.8401 3.13862 15.7793 3.52435C17.7185 3.91008 19.4998 4.86218 20.8978 6.26025C22.2959 7.65833 23.248 9.43958 23.6337 11.3788C24.0195 13.318 23.8215 15.328 23.0649 17.1546C22.3082 18.9813 21.0269 20.5426 19.383 21.6411C17.739 22.7395 15.8062 23.3258 13.829 23.3258C11.1777 23.3258 8.63501 22.2726 6.76025 20.3978C4.88549 18.5231 3.83227 15.9804 3.83227 13.329Z" fill="#735CC6"/>
</svg>
