<svg width="24" height="17" viewBox="0 0 24 17" fill="none" xmlns="http://www.w3.org/2000/svg">
<path d="M23.8314 7.85644C23.064 6.52541 18.843 -0.15372 11.6723 0.0621224C5.04109 0.23 1.20389 6.05775 0.160653 7.85644C0.0554072 8.03873 0 8.24551 0 8.456C0 8.66649 0.0554072 8.87328 0.160653 9.05557C0.916102 10.3626 4.95716 16.8499 12.02 16.8499H12.3198C18.951 16.682 22.8001 10.8543 23.8314 9.05557C23.9366 8.87328 23.9921 8.66649 23.9921 8.456C23.9921 8.24551 23.9366 8.03873 23.8314 7.85644ZM12.2598 14.4516C7.0916 14.5715 3.72206 10.1468 2.66683 8.456C3.86595 6.52541 6.99567 2.58029 11.7922 2.46037C16.9364 2.32847 20.318 6.76524 21.3852 8.456C20.1501 10.3866 17.0563 14.3317 12.2598 14.4516Z" fill="#735CC6"/>
<path d="M11.9958 4.25909C11.1657 4.25909 10.3543 4.50524 9.66408 4.96641C8.97389 5.42757 8.43596 6.08304 8.1183 6.84994C7.80065 7.61683 7.71753 8.46069 7.87947 9.27482C8.04141 10.0889 8.44113 10.8368 9.02809 11.4237C9.61504 12.0107 10.3629 12.4104 11.177 12.5723C11.9911 12.7343 12.835 12.6512 13.6019 12.3335C14.3688 12.0158 15.0242 11.4779 15.4854 10.7877C15.9466 10.0975 16.1927 9.28611 16.1927 8.45603C16.1927 7.34294 15.7505 6.27543 14.9635 5.48835C14.1764 4.70127 13.1089 4.25909 11.9958 4.25909ZM11.9958 10.2547C11.64 10.2547 11.2923 10.1492 10.9965 9.95159C10.7007 9.75395 10.4701 9.47303 10.334 9.14436C10.1979 8.8157 10.1622 8.45404 10.2316 8.10513C10.301 7.75622 10.4724 7.43572 10.7239 7.18417C10.9755 6.93262 11.296 6.76131 11.6449 6.69191C11.9938 6.6225 12.3554 6.65812 12.6841 6.79426C13.0128 6.9304 13.2937 7.16094 13.4913 7.45674C13.689 7.75253 13.7945 8.10029 13.7945 8.45603C13.7945 8.93308 13.605 9.39058 13.2676 9.7279C12.9303 10.0652 12.4728 10.2547 11.9958 10.2547Z" fill="#735CC6"/>
</svg>
