<svg width="20" height="20" viewBox="0 0 20 20" fill="none" xmlns="http://www.w3.org/2000/svg">
<path d="M10 0.0065918C4.486 0.0065918 0 4.49259 0 10.0066C0 15.5206 4.486 20.0066 10 20.0066C15.514 20.0066 20 15.5206 20 10.0066C20 4.49259 15.514 0.0065918 10 0.0065918ZM10 18.0066C5.589 18.0066 2 14.4176 2 10.0066C2 5.59559 5.589 2.00659 10 2.00659C14.411 2.00659 18 5.59559 18 10.0066C18 14.4176 14.411 18.0066 10 18.0066Z" fill="#735CC6"/>
<path d="M11 5.00659H9V10.4206L12.293 13.7136L13.707 12.2996L11 9.59259V5.00659Z" fill="#735CC6"/>
</svg>
