<svg width="62" height="64" viewBox="0 0 62 64" fill="none" xmlns="http://www.w3.org/2000/svg">
<path fill-rule="evenodd" clip-rule="evenodd" d="M49.4549 9.34129L55.7771 13.7052L62 9.53016V0.991119L49.4549 9.34129ZM12.7141 54.631L6.39186 50.3267L0 54.6608L0.0596445 63.0309L12.7141 54.631ZM36.7507 17.6815L42.9437 21.8566L13.4895 41.8274L31.7108 54.1539L40.2597 48.3386L33.6194 43.9448L48.938 33.6164L61.7415 42.1555L30.7763 62.8519L0.198814 42.2847L36.7507 17.6815ZM25.14 46.0025L18.9469 41.8274L48.431 21.8467L30.1998 9.53016L21.6508 15.3455L28.2912 19.7392L12.9726 30.0278L0.13917 21.5286L31.0348 0.802246L61.6819 21.4689L25.14 46.0025Z" fill="#735CC6"/>
</svg>
