<svg width="62" height="63" viewBox="0 0 62 63" fill="none" xmlns="http://www.w3.org/2000/svg">
<path fill-rule="evenodd" clip-rule="evenodd" d="M49.4549 9.09019L55.7771 13.4541L62 9.27906V0.74002L49.4549 9.09019ZM12.7141 54.3799L6.39186 50.0756L0 54.4097L0.0596445 62.7798L12.7141 54.3799ZM36.7507 17.4304L42.9437 21.6055L13.4895 41.5763L31.7108 53.9028L40.2597 48.0875L33.6194 43.6937L48.938 33.3653L61.7415 41.9044L30.7763 62.6008L0.198814 42.0336L36.7507 17.4304ZM25.14 45.7514L18.9469 41.5763L48.431 21.5956L30.1998 9.27906L21.6508 15.0944L28.2912 19.4881L12.9726 29.7767L0.13917 21.2775L31.0348 0.551147L61.6819 21.2178L25.14 45.7514Z" fill="#FCFC30"/>
</svg>
