<svg width="20" height="19" viewBox="0 0 20 19" fill="none" xmlns="http://www.w3.org/2000/svg">
<path d="M9.75303 4.16426L10.4902 3.19174C11.3421 2.06654 12.6122 1.2467 14.1294 1.2467C14.9219 1.24664 15.6996 1.4618 16.3794 1.86919C17.0591 2.27659 17.6156 2.86094 17.9892 3.55987C18.3628 4.2588 18.5396 5.04606 18.5008 5.83763C18.4619 6.62921 18.2088 7.39537 17.7685 8.05434C16.9837 9.22719 9.75303 16.807 9.75303 16.807" stroke="#735CC6" stroke-width="2" stroke-linecap="round"/>
<path d="M9.75303 4.16426L9.01583 3.19174C8.16391 2.06654 6.8938 1.2467 5.37667 1.2467C4.58414 1.24664 3.80648 1.4618 3.12668 1.86919C2.44688 2.27659 1.89048 2.86094 1.51685 3.55987C1.14322 4.2588 0.966404 5.04606 1.00527 5.83763C1.04413 6.62921 1.29721 7.39537 1.7375 8.05434C2.52233 9.22719 9.75303 16.807 9.75303 16.807" stroke="#735CC6" stroke-width="2" stroke-linecap="round"/>
</svg>
